<svg width="35" height="35" viewBox="0 0 35 35" fill="none" xmlns="http://www.w3.org/2000/svg">
<path d="M18.3183 5.4476C10.1893 4.71373 3.38687 11.4879 4.12074 19.6452C4.68526 25.8831 9.70945 30.9073 15.9474 31.4718C24.0764 32.2057 30.8788 25.4032 30.1449 17.2742C29.5804 11.0081 24.5562 5.98389 18.3183 5.4476ZM25.7135 11.996C26.9554 13.6613 27.7175 15.6653 27.8586 17.867C27.8586 18.0081 27.7457 18.0928 27.6046 18.0645C25.2054 17.5847 22.9474 17.5 20.8304 17.8105C20.7457 17.8105 20.6611 17.7823 20.6328 17.6976C20.3788 17.1049 20.153 16.5686 19.899 16.0323C19.8425 15.9194 19.899 15.8065 19.9836 15.7782C21.9595 14.875 23.8224 13.6613 25.4312 12.0242C25.5159 11.9113 25.657 11.9113 25.7135 11.996ZM23.7941 10.3307C22.3546 11.7984 20.7175 12.8992 18.8828 13.7178C18.7982 13.7742 18.6853 13.7178 18.6288 13.6331C17.3586 11.2903 16.0885 9.45567 15.1288 8.18551C15.0441 8.0726 15.1006 7.90325 15.2417 7.87502C15.8627 7.76212 16.4836 7.70567 17.1328 7.70567C19.6449 7.70567 21.9595 8.58067 23.7941 10.0202C23.8788 10.1049 23.8788 10.246 23.7941 10.3307ZM12.6732 8.8347C13.5764 9.93551 14.9877 11.7984 16.4272 14.367C16.4836 14.4799 16.4272 14.621 16.3143 14.6492C13.5482 15.4395 10.4433 15.8065 6.97155 15.9476C6.83042 15.9476 6.74574 15.8347 6.77397 15.6936C7.56429 12.6734 9.653 10.1613 12.4191 8.80647C12.5038 8.75002 12.6167 8.77825 12.6732 8.8347ZM6.60461 18.2903C10.3304 18.1774 14.0562 17.8105 17.4715 16.7379C17.5562 16.7097 17.6691 16.7379 17.6974 16.8508C17.8949 17.2742 18.0925 17.7258 18.3183 18.1774C18.3748 18.2903 18.3183 18.4032 18.2054 18.4597C14.8183 19.5605 11.7982 21.7903 9.08848 25.2057C9.00381 25.2903 8.86268 25.3186 8.778 25.2339C7.25381 23.5968 6.46348 21.1412 6.40703 18.5444C6.40703 18.375 6.49171 18.2903 6.60461 18.2903ZM10.7256 26.8145C13.2095 23.625 15.9474 21.5645 19.0522 20.6049C19.1651 20.5766 19.278 20.6331 19.3062 20.7178C20.0965 22.9476 20.774 25.4597 21.1974 28.1976C21.2256 28.2823 21.1691 28.3952 21.0845 28.4234C19.8707 28.9032 18.5159 29.1855 17.1328 29.1855C14.7619 29.1855 12.5603 28.3952 10.782 27.0968C10.6691 27.0121 10.6691 26.8992 10.7256 26.8145ZM23.3425 26.8428C22.8909 24.4718 22.2982 22.2984 21.6207 20.2944C21.5925 20.1815 21.649 20.0403 21.7901 20.0403C23.5683 19.8428 25.4595 19.9839 27.4917 20.4355C27.6046 20.4637 27.6611 20.5766 27.6611 20.6895C27.1248 23.2299 25.6853 25.4597 23.6812 26.9839C23.5401 27.0686 23.3425 26.9839 23.3425 26.8428Z" fill="white"/>
</svg>
