<svg width="40" height="40" viewBox="0 0 40 40" fill="none" xmlns="http://www.w3.org/2000/svg">
<path d="M10.1953 22.5781H14.3984V36.0938H10.1953V22.5781ZM12.3047 15.8594C13.6484 15.8594 14.7422 16.9531 14.7422 18.2969C14.7422 19.6406 13.6484 20.7344 12.3047 20.7344C10.9531 20.7344 9.86719 19.6406 9.86719 18.2969C9.86719 16.9531 10.9531 15.8594 12.3047 15.8594Z" fill="white"/>
<path d="M17.0391 22.5781H21.0625V24.4297H21.1172C21.6797 23.3672 23.0469 22.25 25.0938 22.25C29.3438 22.25 30.1328 25.0469 30.1328 28.6875V36.0938H25.9375V29.5234C25.9375 27.9531 25.9141 25.9375 23.7578 25.9375C21.5703 25.9375 21.2422 27.6484 21.2422 29.4062V36.0938H17.0469V22.5781H17.0391Z" fill="white"/>
</svg>
