<svg width="30" height="30" viewBox="0 0 30 30" fill="none" xmlns="http://www.w3.org/2000/svg">
<path d="M4.18971 8.33813C4.22533 7.99219 4.09033 7.64625 3.83252 7.41188L1.18971 4.22438V3.75H9.40408L15.7556 17.6775L21.3394 3.75H29.1731V4.22438L26.9119 6.39281C26.7188 6.53906 26.6185 6.78562 26.6597 7.02562V22.9631C26.6185 23.2031 26.7188 23.4497 26.9119 23.5959L29.1206 25.7644V26.2388H18.0056V25.7644L20.2969 23.5434C20.52 23.3203 20.52 23.25 20.52 22.9106V10.0312L14.1506 26.1975H13.2891L5.88283 10.0312V20.865C5.81814 21.3216 5.97096 21.7791 6.29346 22.1072L9.27002 25.7166V26.1909H0.83252V25.7222L3.80908 22.1072C4.12502 21.7791 4.27221 21.3159 4.18971 20.865V8.33813Z" fill="white"/>
</svg>
